<svg xmlns="http://www.w3.org/2000/svg" viewBox="0 0 32 32" enable-background="new 0 0 32 32"><style type="text/css">.brand-secondary{fill:#242423;}</style><path class="brand-secondary" d="M7.172 9.979c-.299-1.451.035-3.1.51-4.557.476-1.463 1.913-1.952 3.469-1.317.717.292 1.326 1.031 1.695 1.694.411.738.493 1.621.718 2.441-.111 1.431-.531 2.63-2.151 3.184-1.209.414-4.005-.299-4.241-1.445zm.316 8.617c.484-.784.95-1.582 1.511-2.321 1.103-1.453 1.022-2.075-.552-3.132-.448-.301-.893-.619-1.387-.848-1.337-.618-2.38-1.343-1.454-3.122-.557.157-.783.157-.847.248-.501.715-.935 1.468-1.457 2.17-1.953 2.628-1.925 4.822.131 7.291 1.206 1.447 3.068 1.312 4.055-.286zm2.996-17.596l-1.971 2.226c1.959.224 2.389-.497 1.971-2.226zm7.831 11.296c1.725.462 3.641-1.097 4.28-3.482.639-2.386-.24-4.693-1.963-5.155-1.725-.462-3.641 1.097-4.278 3.483-.64 2.384.238 4.692 1.961 5.154zm-3.454 2.52c-2.578-.141-3.921.728-4.131 2.96-.144 1.539-1.036 2.88-2.838 3.611-.706.286-1.952.953-2 1.501-.162 1.848.317 3.691 2 5.089 1.527 1.269 3.564.814 5.305.432.549-.121 1.117-.515 1.689-.596 5.088.013 9.206 3.775 9.206-2.168.001-5.951-5.92-10.827-9.231-10.829zm12.806-3.724c-1.366-.79-3.362.105-4.457 2-1.093 1.894-.873 4.071.498 4.86 1.366.79 3.362-.105 4.457-2 1.092-1.893.87-4.07-.498-4.86z"/></svg>