<svg xmlns="http://www.w3.org/2000/svg" viewBox="0 0 800 200" enable-background="new 0 0 800 200"><path d="M326.258 75.864c2.396-3.661 2.302-4.801-1.641-5.669-4.487-.988-9.166-1.265-13.778-1.467-2.596-.114-4.581-.514-5.402-3.599 7.341-1.788 14.521-1.787 21.415 1.451 1.113.523 1.607 2.365 2.655 4.021 1.747-4.92 3.331-9.609 5.075-14.238 3.281-8.712 6.508-17.45 10.093-26.037.881-2.111 3.055-3.684 4.635-5.503 1.096-1.262 2.123-2.593 3.31-3.763 1.407-1.387 2.824-2.849 4.497-3.841.714-.423 2.086.265 3.158.448-.401 1.205-.427 2.979-1.26 3.526-7.586 4.982-12.803 11.799-15.813 20.239-3.209 8.995-6.02 18.132-9.151 27.157-.848 2.444-2.226 4.704-3.695 7.741.704 2.271 3.524 3.698 5.961 2.831 2.002-.712 3.219-3.632 4.388-5.082v2.107l.987.305c5.621-8.728 9.646-18.107 10.661-28.84 1.877 2.357 1.453 6.481 1.02 11.182-.865 9.394-5.379 16.855-11.154 23.726-2.991 3.558-3.898 7.593-4.08 11.899-.248 5.884-.301 11.784-.206 17.674.056 3.453 1.195 4.08 4.401 2.995 4.073-1.378 6.355-4.56 6.524-9.132.441-11.961 3.738-23.192 11.141-32.496 3.667-4.609 9.497-7.525 14.464-11.043.852-.604 2.287-.383 3.453-.544l-.611 1.082c1.367 1.401 2.89 2.688 4.038 4.25.63.858.901 2.187.871 3.291-.363 13.481-4.85 24.811-16.381 32.886-5.249 3.676-5.221 9.236-1.149 14.341 2.001 2.509 4.22 2.626 6.392 1.042 6.706-4.891 13.76-9.401 15.276-18.793.711-4.406 2.908-8.569 4.399-12.854.266-.764.368-1.585.546-2.379l-.989-.503c-2.125 3.552-3.842 7.454-6.496 10.554-2.466 2.879-3.284 7.775-8.805 8.48.355-1.391.368-2.285.778-2.925 5.612-8.762 11.013-17.676 17.03-26.153 3.668-5.169 9.773-6.055 15.468-7.187l.93.962-3.124 6.218c-2.823-1.06-5.852.621-7.28 4.053 4.83 2.815 5.627-1.47 7.326-4.167-.875 2.901-1.417 5.958-2.686 8.675-3.957 8.476-5.779 17.42-6.306 26.661-.089 1.568.396 4.256 1.251 4.546 1.438.486 3.551-.211 5.092-.984 6.078-3.048 10.253-7.605 11.895-14.524 1.07-4.507 3.146-8.769 4.649-13.182.526-1.543.686-3.211.55-5.035-4.452 3.623-5.737 9.86-10.832 12.702l-1.059-.442c.656-2.193 1.019-4.532 2.028-6.548 2.083-4.164 4.387-8.231 6.833-12.195 2.072-3.358 4.164-6.358 9.322-5.357 1.964.381 4.523-2.303 7.649-4.062l.839 8.396c-.892.118-1.136.231-1.253.153-.96-.634-10.467.746-10.768 1.715-.265.852-.389 2.069.029 2.758 1.905 3.141 8.536 2.729 11.033-.366-1.41 5.54-2.759 11.096-4.244 16.616-4.058 15.088-12.174 28.041-21.279 40.495-.981 1.341-1.139 3.281-1.692 4.939-.493 1.476-.66 3.21-1.559 4.379-12.404 16.132-28.39 26.522-48.738 29.405-24.292 3.441-47.227-.647-68.306-13.488-10.55-6.426-19.8-14.429-27.258-24.37-.584-.779-1.282-1.575-1.542-2.475-.62-2.144-1.92-2.776-4.079-2.776-6.821-.001-12.152-2.477-14.541-10.031-3.175 2.466-6.416 4.436-8.947 7.086-3.262 3.415-7.181.966-10.687 1.783-.22.051-1.455-2.33-1.465-3.585-.101-12.987-.15-25.971 2.632-38.782.71-3.272.706-6.7.999-9.735 1.006.746 2.479 2.674 4.127 2.839 1.864.186 4.986 1.084 5.565-2.501.349-2.163.761-4.316 1.633-6.429-.774 7.286-1.999 14.561-2.194 21.863-.19 7.099.674 14.226 1.105 21.85 4.491-1.58 6.947-2.648 7.342-7.402.668-8.041 4.542-15.221 9.259-21.76 1.376-1.907 1.413-2.916-.426-4.536-5.998-5.284-4.877-9.061-2.124-15.182 2.133-4.742 7.725-6.352 13.378-4.866 6.211 1.633 10.2 5.735 12.72 11.345 1.27 2.828 2.977 3.205 5.519 2.042 3.903-1.786 8.06-3.166 11.632-5.462 1.731-1.113 2.86-3.792 3.415-5.978 1.375-5.408 2.262-10.941 3.344-16.424l1.53.036c.173 1.287.66 2.624.464 3.852-.871 5.447-1.983 10.856-2.919 16.293-.62 3.601-2.336 6.349-5.45 8.355-.809.521-1.712 2.082-1.463 2.754.302.813 1.832 1.735 2.742 1.651 2.817-.259 5.592-.974 8.398-1.515-1.738 11.859-5.457 24.15-1.736 37.623l10.049-7.69c2.437-1.864 4.634-4.275 7.364-5.472 5.113-2.242 6.54-6.455 7.635-11.25.899-3.936 2.008-7.847 3.373-11.644.769-2.141.373-2.978-1.802-3.108l.083.098zm-67.071-9.912c-.477-.105-.949-.234-1.43-.31-2.819-.444-5.242.321-6.428 3.006-1.227 2.78.296 4.751 2.385 6.643 4.181 3.786 8.855 1.689 13.306 2.191l.706-1.194c-2.903-3.492-5.806-6.984-8.71-10.476 3.579 3.782 7.113 7.61 10.778 11.306.715.721 1.943.932 2.934 1.379.314-.844 1.004-1.746.883-2.521-.939-6.019-7.385-11.555-13.379-11.531-.35.001-.697.982-1.045 1.507zm110.776 10.755c-4.617 6.843-9.014 13.759-8.01 22.938 7.697-5.117 10.512-12.445 12.023-20.465.176-.932-.245-2.705-.788-2.885-.95-.315-2.21.303-3.34.53 1.658-3.254 3.679-2.298 5.895-.599 2.797 2.144 5.087 1.42 4.834-1.818-.19-2.428-1.78-4.874-3.25-6.956-.259-.367-3.243.687-4.542 1.657-2.916 2.176-5.611 4.662-8.268 7.158-.374.351-.027 1.469-.013 2.231.76-.038 1.585.098 2.266-.154 1.115-.412 2.135-1.078 3.193-1.637zm-47.738 28.181c-3.221 3.101-6.256 5.586-8.757 8.526-4.72 5.546-9.557 10.799-16.227 14.144-5.458 2.737-8.328 1.532-9.194-4.502-.302-2.103-.671-3.631-3.258-4.117-1.041-.195-2.587-2.18-2.49-3.218.528-5.669 1.378-11.318 2.344-16.935 1.128-6.563 2.49-13.085 3.829-20.036-1.357.384-2.185.546-2.958.848-7.383 2.89-7.771 2.938-6.943 10.735 1.351 12.727-1.271 24.348-7.742 34.127.652 2.46 1.241 4.117 1.501 5.825.269 1.768-.34 3.883.427 5.315 1.429 2.665 3.478 5.028 5.446 7.369 6.275 7.464 14.685 11.57 23.485 15.303 20.852 8.843 42.068 12.425 64.156 5.366 8.297-2.651 15.686-7.056 21.545-13.596 1.976-2.206 3.896-4.768 1.95-8.288-.406-.734.571-2.71 1.444-3.578 2.253-2.242 5.071-3.946 7.177-6.299 3.675-4.106 6.985-8.538 10.448-12.833l-1.129-1c-2.543 2.213-4.895 4.721-7.691 6.548-2.262 1.479-4.996 2.477-7.654 2.979-.919.173-2.227-1.808-3.39-2.765-.264-.217-.663-.36-1.006-.374-2.923-.118-3.164-2.19-3.264-4.393-.065-1.441-.161-2.88-.291-5.158-3.088 2.55-5.799 4.424-8.063 6.736-4.878 4.979-10.964 6.73-17.606 7.043-.922.043-1.975-1.032-2.834-1.749-1.04-.868-2.002-1.85-2.877-2.886-.741-.877-1.486-1.829-1.909-2.876-.51-1.264-.681-2.665-1.229-4.976-4.139 3.478-7.454 6.522-11.05 9.186-2.114 1.566-4.572 2.9-7.081 3.593-1.107.306-3.862-1.16-3.917-1.956-.247-3.568-2.387-3.99-5.193-3.699.001-6.123.001-11.961.001-18.409zm-72.209-2.298l1.328.512c2.962-1.709 3.684-6.48 8.467-6.367-.235 1.002-.21 1.81-.583 2.332-2.35 3.293-4.731 6.569-7.219 9.759-1.766 2.264-2.125 4.177.205 6.403 3.276 3.131 7.422 2.769 10.757-1.071 6.77-7.794 5.188-17.535 6.207-26.65.062-.552-1.541-1.831-2.384-1.845-2.801-.044-5.647.128-8.395.646-1.254.236-2.92 1.227-3.364 2.303-1.884 4.572-3.381 9.304-5.019 13.978zm375.505-27.584c-2.914 2.949-5.583 6.206-8.807 8.764-3.538 2.806-7.708 4.804-11.348 7.498-1.272.941-2.381 2.851-2.524 4.413-.31 3.402-.189 6.891.177 10.299 1.157 10.768.047 20.828-8.694 29.163 9.735 3.994 19.203 6.762 29.461 6.012 12.718-.929 23.442-6.771 33.726-13.633 6.691-4.464 8.604-13.861 4.422-20.618-.121-.018-.274-.094-.36-.047-5.156 2.826-9.145.566-13.138-2.701-2.112-1.728-4.469-2.23-6.626.633-1.637 2.173-3.881 3.89-6.351 5.432l4.071-5.709-9.982 4.608-.431-.559c1.714-1.327 3.348-2.779 5.164-3.947 1.791-1.152 3.767-2.016 5.46-3.581h-7.085l-.137-.637 5.059-1.127c-.525-.831-.786-1.701-1.366-2.079-2.142-1.397-5.353-1.958-3.97-5.762-1.067-.348-2.149-1.005-3.196-.952-.956.048-1.874.865-3.388.749l7.227-10.048-2.534-.873-.003-.687c1.101-.181 2.198-.487 3.304-.521 6.195-.191 6.732-.832 5.493-7.093l5.071-1.56c-.156 1.548-.311 2.837-.41 4.131-.258 3.34-.568 6.681-.651 10.027-.012.501 1.054 1.391 1.681 1.447.694.062 2.045-.588 2.071-.995.062-.975-.484-1.989-.746-2.86 3.651 2.786 8.094 3.674 12.953 2.937.671-.102 1.757.37 2.149.929 4.321 6.16 11.263 3.869 14.867-1.685.389-.6.858-1.148 1.289-1.721l.927.24c-.366 1.491-.592 3.034-1.129 4.461-.891 2.371.32 3.046 2.258 2.778 1.666-.23 3.408-.686 4.86-1.501 1.991-1.118 3.654-2.811 5.617-3.992 1.873-1.126 3.951-1.911 6.077-2.91-.469 1.442-.585 3.169-1.489 4.212-.992 1.144-2.71 1.659-4.111 2.448l.282.911h4.239l.087.864-11.864 2.686 6.437 2.992-.234.752c-1.765-.252-3.568-.353-5.285-.792-2.427-.621-3.551.512-3.838 2.65-.469 3.498-.003 6.825 2.819 10.215 2.03-2.255 4.203-4.192 5.796-6.524 6.192-9.06 12.217-18.234 18.263-27.394 1.547-2.345 3.244-4.272 7.444-3.818-1.258 2.132-2.238 3.798-3.224 5.462-1.179 1.99-2.643 3.874-3.428 6.009-.395 1.075.437 2.602.625 3.496-6.584 8.796-13.091 17.963-20.095 26.732-9.47 11.857-20.258 22.529-33.201 30.506-13.103 8.075-27.369 11.323-43.003 8.659-11.099-1.892-20.837-7.077-31.203-10.733-1.583-.558-3.309-.921-4.981-.975-4.662-.149-8.186-1.88-10.301-6.25-1.661-3.434-5.906-4.048-8.546-1.296-4.733 4.933-10.737 6.78-17.287 6.785-5.828.004-15.065-7.793-14.587-15.5.478-7.699.049-8.123-7.786-7.636-25.232 1.567-49.677 6.165-71.322 20.365-5.532 3.629-10.925 7.472-16.395 11.197-3.965 2.7-5.362 6.739-6.334 11.193-.369 1.689-1.545 3.824-2.968 4.548-5.327 2.71-10.878 4.995-16.419 7.257-1.093.446-2.515.087-3.786.1.222-1.243.097-2.712.732-3.686 1.723-2.645 3.68-5.154 5.7-7.586 12-14.443 24.311-28.638 35.997-43.33 10.515-13.22 21.865-25.576 34.514-36.734 9.228-8.141 19.104-15.421 30.079-21.071 1.504-.774 3.405-.777 5.443-.407-6.696 8.071-17.823 10.631-24.02 20.741 2.343 0 3.725.06 5.1-.017 1.299-.073 2.59-.29 3.884-.443l-40.267 40.806.626.61c5.815-2.015 11.589-4.16 17.453-6.017 13.926-4.41 28.255-6.798 42.811-5.803 6.179.422 10.2.001 12.21-6.63.845-2.789 3.219-5.2 5.191-7.535 1.543-1.827 1.709-3.145.103-5.043-3.391-4.009-3.496-8.451-1.067-13.02 3.261-6.135 11.423-8.043 17.301-3.438 4.067 3.186 7.391 7.321 11.757 11.751 2.094-1.925 5.349-3.933 7.23-6.831 5.777-8.898 15.379-7.631 22.057-1.384 2.211 2.068 4.092 4.573 5.742 7.125 1.15 1.779 2.172 1.982 3.869 1.057 5.474-2.986 10.94-5.991 16.489-8.833 1.633-.837 3.53-1.157 5.307-1.714l.946 1.588zm-52.155 44.58c.729 5.305 2.105 7.118 6.941 8.248 3.545.829 7.192-.852 8.504-5.537 2.026-7.238 3.346-14.727 4.279-22.195.514-4.118-.779-4.639-8.056-6.236-3.404-.747-4.959 1.483-5.699 3.91-2.197 7.207-4.007 14.532-5.969 21.81zm-21.392-5.594c.992-5.034 2.007-9.893 2.857-14.781.149-.855-.289-2.588-.63-2.634-3.963-.538-7.956-.87-11.95-1.125-.384-.025-.974.764-1.214 1.291-1.719 3.765-3.481 7.52-4.948 11.384-.272.715.556 2.623 1.174 2.777 4.697 1.165 9.468 2.03 14.711 3.088zm20.878-26.251c-3.981 1.565-8.27 2.456-8.457 8.138-.257 7.812-.904 15.611-1.266 23.421-.036.776.739 1.589.93 1.97 3.379-8.802 6.452-17.53 10.128-25.995 1.316-3.029 1.502-5.117-1.335-7.534zm-20.43-.658c-1.771-4.376-4.133-7.88-7.929-10.036-1.142-.649-3.842-.473-4.461.351-.819 1.09-.895 3.494-.235 4.8 2.009 3.976 7.24 5.955 12.625 4.885zm38.002.285l.753-1.303c-1.774-4.114-3.767-7.979-8.751-9.34-2.474-.675-4.47.138-4.996 2.329-.308 1.283.73 3.811 1.846 4.342 3.543 1.687 7.408 2.699 11.148 3.972zm59.725-1.177c-.774.253-1.065.259-1.212.408-4.674 4.728-6.722 4.267-9.4-1.974-.266-.621-1.407-.866-2.142-1.286-.482.968-1.486 2.014-1.356 2.89.526 3.531 6.288 7.071 9.672 5.957 2.612-.86 4.724-2.393 4.438-5.995zm-113.281 32.916c-.859 3.412.571 5.104 2.759 6.217 1.916.975 3.875 1.109 5.652-1.247-2.859-1.689-5.496-3.247-8.411-4.97zm-411.255-29.062c-1.239-2.666.062-4.361 1.93-5.057 1.505-.561 4.12-.314 5.241.691 2.889 2.592 5.549 5.586 7.705 8.816 3.461 5.186 6.245 6.541 12.418 5.095 1.422-.333 3.047-.958 4.316-.576 4.633 1.394 8.549.349 12.431-2.322 1.851-1.274 2.524-2.491 2.584-4.74.065-2.454.475-5.193 1.679-7.257 1.888-3.236 1.75-4.934-1.678-6.507-2.85-1.308-5.674-2.672-8.606-4.058-3.477 3.04-3.456 3.024-6.449-.831-1.053-1.357-2.18-2.665-3.363-3.91-2.403-2.528-4.036-2.305-5.694.693-4.466 8.073-12.791 11.012-21.517 7.988-3.068-1.063-6.511-1.897-9.668-1.603-2.896.269-5.485 1.499-8.266-.611-.637-.483-2.381.494-3.616.8.31 1.08.314 2.442.994 3.18 1.29 1.4 2.859 2.629 4.508 3.594 3.075 1.8 6.29 3.361 9.567 5.084-3.679 1.605-22.251-7.272-24.249-11.402 2.959-.009 4.708-2.891 3.629-5.744-.33-.872-.587-2.379-.122-2.848 3.422-3.458 7.339-6.497 8.508-11.609.071-.309.464-.559.737-.805 4.556-4.1 9.24-8.07 13.596-12.372 1.224-1.209 2.133-3.457 1.973-5.111-.118-1.218-2.209-2.246-3.591-3.516-.39 2.337-.101 4.43-1.005 5.344-3.529 3.567-7.498 6.694-11.175 10.122-1.871 1.745-5.358 2.542-4.187 6.391.096.315-.66.96-1.105 1.356-2.648 2.355-5.372 4.626-7.956 7.049-.858.805-1.375 1.974-2.473 3.611l4.823-.327c-3.435 6.181-7.821 10.27-16.296 9.508 2.484 2.279 5.271 3.741 5.157 4.924-.463 4.809 2.082 5.677 5.853 5.774.421.011.812.529 1.248.748 2.732 1.366 5.482 2.697 8.209 4.074 1.214.613 2.39 1.303 3.583 1.959l-.44.94c-1.084-.366-2.205-.651-3.245-1.114-2.688-1.198-5.292-2.601-8.03-3.665-1.249-.486-2.734-.365-4.112-.52-.131 1.424-.628 2.928-.338 4.26 3.69 16.987 11.888 30.738 27.996 38.833 7.225 3.63 14.792 6.158 22.846 6.459 12.93.483 21.721-6.719 28.319-16.86 8.368-12.862 15.82-26.248 20.925-40.814.398-1.136 1.158-2.145 1.75-3.214l1.05.284v3.406c-.003 6.13-.289 12.275.063 18.384.45 7.816 1.355 15.609 2.187 23.399.297 2.781.766 5.574 1.501 8.268.7 2.568 2.507 2.977 4.328 1.035.969-1.033 1.619-2.439 2.162-3.778.903-2.226 1.96-3.952 4.501-4.896 1.399-.52 2.906-2.435 3.182-3.938.561-3.046-.152-6.344.509-9.351 1.18-5.365 2.813-10.652 4.583-15.862 2.022-5.954 4.4-11.787 6.753-18.016-4.74.94-5.817-.014-4.659-3.97 1.373-4.693 3.206-9.25 4.751-13.894 2.653-7.972 7.174-15.42 6.576-24.331-.08-1.193 1.235-2.945 2.387-3.672 4.01-2.528 8.231-4.724 12.382-7.027.296-.164.68-.171 1.132-.277l1.921 2.212c-.199-1.878-.741-3.49-1.36-5.072-.289-.738-.659-1.949-1.113-2.008-.813-.105-1.918.278-2.551.846-3.557 3.19-7.008 6.324-12.04 7.284-1.256.24-2.632 2.595-2.99 4.193-.642 2.866.134 6.162-.887 8.814-5.597 14.532-11.506 28.946-17.437 43.347-1.434 3.481-3.356 6.762-5.053 10.134l-1.321-.37v-25.038l-.886-.042c-.169 1.909.015 3.944-.614 5.688-.532 1.475-1.753 3.23-3.107 3.776-3.409 1.375-7.512-2.588-6.454-6.107 2.296-7.634 4.538-15.301 7.35-22.749.658-1.744 3.483-2.683 5.338-3.954.62-.424 1.71-.6 1.881-1.12.173-.529-.355-1.519-.865-2.001-2.465-2.333-5.738-1.855-7.55 1.341-1.002 1.767-1.258 3.942-1.983 5.884-3.261 8.727-6.602 17.424-9.855 26.153-5.398 14.487-12.132 28.244-22.828 39.621-5.954 6.333-13.32 9.7-22.22 7.413-8.373-2.151-14.62-7.545-17.833-15.288-3.01-7.252-3.831-10.146 5.596-10.527.194-.008.378-.255.355-.238-.732-2.704-1.109-5.452-2.226-7.856zm86.951 28.373c.46 3.601-.595 7.176-4.419 9.393-1.942 1.126-3.684 3.087-4.771 5.077-1.41 2.581-2.571 5.317-5.929 5.124-3.423-.197-3.766-3.413-4.663-5.901-.244-.679-.285-1.442-.35-2.173-.845-9.511-1.772-19.016-2.468-28.538-.28-3.83-.046-7.698-.046-11.39-6.414 11.286-12.461 22.582-19.147 33.486-5.318 8.673-11.765 16.333-22.712 18.398-15.588 2.94-28.891-2.739-40.95-11.472-14.915-10.802-18.948-27.685-22.562-44.448-.556-2.579-1.327-3.626-4.548-3.847.456 1.823.702 3.293 1.19 4.677 1.906 5.399 4.495 10.635 5.74 16.176 5.791 25.766 26.208 44.222 52.513 46.58 10.807.969 20.789-1.769 27.889-10.39 5.508-6.688 9.905-14.282 14.984-21.338 1.473-2.047 3.593-3.628 5.417-5.423.954 2.367 2.349 4.657 2.774 7.116 1.042 6.033 1.486 12.169 2.47 18.214.545 3.348 2.53 5.939 6.074 6.649 3.533.708 5.695-1.507 7.674-4.031 1.655-2.112 3.302-4.279 5.254-6.097 2.022-1.883 4.342-2.131 6.513.108 4.055 4.181 9.603 4.834 13.965 2.447 6.589-3.605 11.65-2.217 18.091.398 5.843 2.373 9.681 6.114 13.879 10.258 6.603 6.518 13.154 13.487 20.932 18.328 13.671 8.508 28.353 14.959 44.897 16.458 22.521 2.04 43.902-.125 62.938-13.691 1.929-1.375 4.495-2.055 6.041-3.728 4.294-4.647 8.281-9.587 12.228-14.539 1.508-1.892 2.754-4.049 3.808-6.235 1.406-2.916 1.97-6.373 3.831-8.912 9.971-13.603 16.443-28.755 20.426-45.009 1.309-5.34 2.078-10.854 2.584-16.335.317-3.433-.716-6.736-4.455-8.569 0 1.944.128 3.62-.035 5.267-.168 1.702-.656 3.37-.94 5.063-3.36 20.056-10.641 38.445-22.912 54.799-2.343 3.123-5.342 6.077-4.966 10.66.095 1.152-.915 2.465-1.592 3.599-4.461 7.471-11.651 12.181-18.078 17.637-7.388 6.272-16.245 9.784-25.56 11.551-19.681 3.732-39.17 3.435-58.247-3.929-8.866-3.422-17.381-7.338-24.984-13.021-8.886-6.642-16.616-14.428-22.567-23.882-.381-.606-1.318-1.249-1.98-1.231-6.972.185-12.253-2.714-15.783-8.563-4.958 3.821-8.961 8.427-16.164 7.49-4.357-.567-5.868-.793-5.852-5.341.024-7.107.41-14.213.586-21.321.077-3.104.013-6.211.013-9.317-3.309 7.596-7.154 14.929-6.031 23.718zm194.185 61.444c5.17-1.926 10.096-4.499 15.214-6.579 4.555-1.851 7.584-4.847 8.598-9.757.81-3.919 3.123-6.794 6.234-9.256 22.747-18.005 48.919-26.733 77.566-28.809 6.265-.454 7.391.397 8.974 6.498 3.066 11.818 13.892 18.373 25.752 15.341 3.167-.81 6.245-2.195 9.159-3.709 2.935-1.525 5.443-1.626 8.242.299 2.203 1.515 4.623 2.836 7.123 3.775 8.839 3.32 17.725 6.522 26.645 9.619 21.705 7.535 42.46 5.535 61.635-7.285 16.199-10.83 29.365-24.896 40.757-40.651 2.799-3.871 4.951-8.719 8.662-11.316 7.734-5.413 8.565-13.021 8.691-21.084.029-1.888-1.524-3.801-2.349-5.702l-1.481.356c-.647 2.699-2.101 5.5-1.773 8.075.686 5.381-2.127 8.213-5.976 10.815-1.376.93-2.96 1.899-3.78 3.255-11.462 18.933-26.248 34.8-43.892 48.076-10.406 7.83-22.283 12.08-35.102 12.774-13.336.723-25.898-3.062-37.956-8.762-4.038-1.909-8.578-2.745-12.867-4.138-4.14-1.345-8.395-2.403-10.721-6.805-1.273-2.409-3.632-2.06-5.96-.532-3.538 2.322-7.309 4.449-11.25 5.954-4.06 1.551-8.625 1.793-12.517-.394-7.127-4.004-12.272-9.476-10.882-18.623.121-.798-.068-1.644-.115-2.498-.783-.203-1.363-.447-1.957-.488-1.592-.11-3.232-.398-4.778-.149-13.539 2.183-27.235 3.737-40.545 6.906-16.869 4.015-31.001 13.839-44.79 23.985-3.602 2.65-5.426 6.202-5.813 10.604-.263 2.993-1.961 4.822-4.725 5.973-4.854 2.02-9.744 4.012-14.396 6.444-2.921 1.527-5.565 2.46-8.924.306.157 6.293 4.127 9.407 9.297 7.482zm78.424-75.209c12.071-11.95 25.633-22.447 39.008-33 5.037-3.974 11.2-6.556 16.961-9.557 2.235-1.164 5.607-1.831 5.984 1.49.436 3.838 2.538 4.962 5.392 6.286 1.723.799 3.183 2.286 4.573 3.654 2.397 2.359 4.647 4.866 7.36 7.736.394-1.383.637-2.482 1.026-3.527.318-.854.596-2.011 1.261-2.4 4.112-2.403 8.329-4.626 12.602-6.959-3.755.521-6.99.548-7.555-4.421-.089-.787-2.034-1.938-3.054-1.872-.899.058-1.722 1.564-2.546 2.46-1.063 1.155-1.907 3.014-3.179 3.368-2.394.666-5.56 1.438-7.435.406-2.733-1.504-4.704-4.486-6.792-7.011-.599-.724-1.019-2.554-.595-3.006 2.377-2.529 4.806-5.919 6.902-8.386 1.973-.74 2.59.493 2.959 1.48.288.769 1.273.624 1.939.374 2.945-1.108 5.135-.601 6.965 2.14.539.807 2.099 1.242 3.183 1.227.461-.006.883-1.617 1.356-2.48.386-.705.659-1.626 1.264-2.032 3.048-2.045 6.259-3.849 9.272-5.941 2.397-1.665 4.909-3.346 6.797-5.518 2.483-2.855 1.499-5.767-1.685-7.418-1.267 1.106-2.327 2.328-3.642 3.13-7.356 4.487-14.25 10.009-23.4 10.59-1.316.084-2.667.539-3.886 1.084-16.568 7.398-33.119 14.909-47.024 26.88-11.77 10.133-23.249 20.606-34.742 31.055-3.144 2.859-5.872 6.174-8.791 9.28 7.416-1.615 13.757-3.405 19.522-9.112zm-138.4 1.263c.474-14.344 5.406-26.957 14.766-37.854.675-.786 1.148-1.857 1.401-2.874.943-3.801 1.938-7.605 2.575-11.464.992-6.01 1.996-12.046 2.437-18.111.279-3.84-.49-7.751-.725-11.635-.172-2.839-.493-5.531-4.044-6.701-1.075 4.873-2.964 9.399.073 14.015.421.64.482 1.674.373 2.481-2.17 16.087-6.074 31.773-15.86 44.949-5.185 6.98-8.282 13.89-7.817 22.503.165 3.051-.178 6.126-.21 9.191-.01.931.246 1.865.423 3.092 5.038-1.499 6.468-3.343 6.608-7.592zm275.729-11.327c.939-2.097 1.963-4.161 2.793-6.3.94-2.42 2.58-5.009 2.311-7.339-.295-2.553.869-3.072 2.414-3.485 2.389-.638 4.877-.904 6.703-1.22l1.281-6.711c-2.118-1.694-4.306-3.376-6.408-5.16-.736-.624-1.123-1.922-1.906-2.174-1.896-.61-3.932-.786-5.911-1.136.612 1.683.908 3.598 1.924 4.984 1.044 1.425 2.942 2.192 4.193 3.507 1.383 1.454 2.457 3.203 3.665 4.824l-.829.851-4.497-1.189c-3.589 4.867-6.127 10.571-12.243 13.09-2.681 1.104-4.937 3.2-7.558 4.5-3.151 1.563-3.814 3.985-3.597 7.207.345 5.128.721 10.288.514 15.411-.302 7.459-2.276 14.481-8.001 20.647l8.5 1.765c4.417-10.413 4.751-20.729 4.191-31.227-.365-6.833 5.547-11.685 12.556-10.934l-.095.089zm-39.125-63.847c-6.18.592-12.372-.887-18.577 1.367-6.421 2.333-12.995 4.261-19.554 6.189-2.759.811-5.705.979-8.474 1.765-9.639 2.738-19.082 6.526-28.892 8.22-12.794 2.209-25.673 1.473-37.52-5.102-.766-.425-1.725-.503-2.594-.743l-.682.987c1.235 1.1 2.34 2.411 3.726 3.266 11.711 7.225 24.645 7.208 37.734 6.256 1.948-.142 3.915-.02 5.866-.02 2.051-.893 4.191-1.953 6.419-2.77 6.328-2.321 12.689-4.553 19.046-6.793 1.153-.406 2.344-.71 3.529-1.017 6.493-1.682 13.138-2.932 19.436-5.163 4.601-1.631 9.014-2.743 13.926-2.563 2.298.084 4.647-1.242 6.973-1.929l-.362-1.95zm-410.977 66.85c-1.339.721-2.607 1.663-4.032 2.116-2.707.859-5.471 1.659-8.272 2.073-2.947.436-6.01.123-8.94.619-4.311.731-9.754-2.026-12.08-5.639-2.158-3.353-4.988-6.312-7.768-9.209-1.301-1.356-3.312-1.29-3.371 1.044-.052 2.046.595 4.284 1.52 6.145 1.849 3.723.961 5.552-3.147 5.614-3.851.059-5.026 1.466-3.678 5.059 2.004 5.34 5.384 9.681 10.635 13.076-4.8-8.751-4.712-8.657.978-14.01 2.215-2.083 3.828-2 5.912.017 4.173 4.039 9.197 5.197 14.933 4.475 2.57-.323 5.258.382 7.898.488.843.034 2.085-.064 2.495-.599 2.632-3.44 5.084-7.018 7.595-10.55l-.678-.719zm64.323 13.744c.797-1.183 2.172-2.31 2.293-3.558.592-6.105 3.352-11.825 2.147-18.334-.762-4.116 1.349-5.079 5.378-3.533l2.699-2.842c-8.021-6.856-7.208-17.138 1.392-23.953-1.659-.993-3.827-1.864-5.403-3.359-1.487-1.411-2.351-3.478-3.489-5.256l-1.017.545c-3.342 19.761-7.252 39.474-5.137 59.696l1.137.594zm242.883-54.38c-10.442-.358-19.207-4.578-27.018-11.013-3.688-3.038-6.845-6.721-10.242-10.112l-1.017.479c.685 1.949.992 4.155 2.115 5.807 11.144 16.396 28.026 21.615 46.525 23.576.225.024.49-.081.698-.196 3.72-2.06 7.434-4.131 11.946-6.644-8.414-.72-15.699-1.646-23.007-1.897zm-190.702 10.271c2.358-.883 3.446-2.457 3.748-4.904.479-3.871 1.15-7.717 1.74-11.574-1.495 1.395-2.396 3.119-3.569 4.631-1.551 1.999-3.125 4.073-5.074 5.632-.914.731-3.214.933-4.015.29-.978-.786-1.358-2.699-1.412-4.146-.055-1.467.603-2.961 1.2-5.521-1.164 1.249-1.944 1.698-1.945 2.149-.012 4.025-2.721 4.407-5.753 4.448-1.092.015-2.184.06-3.274.124-2.862.168-4.976-.456-5.6-3.848-.192-1.045-1.809-2.51-2.799-2.529-.924-.018-2.083 1.499-2.759 2.578-.503.804-.4 1.987-.602 3.217 9.086 1.201 14.593 6.761 18.155 14.27 4.266-1.73 8.079-3.363 11.959-4.817zm116.414 39.075c-.204-2.651 1.096-4.48 4.375-3.725.644.148 1.952-.506 2.207-1.106 1.215-2.869 2.173-5.847 3.223-8.786-1.13.018-1.564.539-2.096.672-1.671.416-3.378.686-5.072 1.012-.164-1.675-.942-3.6-.381-4.982 2.017-4.973 4.34-9.84 6.828-14.601 2.241-4.29 1.881-5.467-2.999-6.872-4.032 14.68-13.703 27.82-11.745 44.978 2.831-1.853 5.988-2.339 5.66-6.59zm-104.414 4.703c4.2-2.26 4.367-2.543 4.214-6.998-.253-7.373 1.555-9.781 8.674-11.048 2.451-.436 4.988-.385 7.992-.591l3.082-11.597c-7.646 3.46-14.444 7.09-22.798 5.205-.945 8.513-4.078 16.558-1.164 25.029zm335.865-49.584c5.312 1.827 10.515 3.974 15.857 5.702 1.643.531 3.935.792 5.334.052 7.448-3.941 15.598-6.854 19.458-15.668 1.861-4.25 5.423-7.791 8.402-11.503 2.059-2.564 4.439-4.87 6.675-7.291l-.848-1.063c-3.227 2.407-7.055 4.321-9.534 7.342-3.371 4.11-5.71 9.066-8.496 13.657-.376.62-.638 1.459-1.195 1.798-4.878 2.967-9.789 5.883-14.75 8.709-.91.518-2.211 1.005-3.124.754-5.753-1.583-11.881-2.578-17.026-5.357-4.147-2.24-7.528-1.621-11.501-.356 3.586 1.065 7.214 2.009 10.748 3.224zm-6.183 49.5c-1.187.895-2.207 2.012-3.298 3.035 1.286 1.173 2.388 2.941 3.894 3.407 4.416 1.368 8.702 1.559 12.924-1.534 1.701-1.246 4.879-1.3 7.125-.778 3.245.754 6.253 2.527 9.508 3.928 1.175-3.411 3.291-6.606-.165-10.166-4.822 4.053-8.545.265-12.12-2.138-2.546-1.712-3.98-1.896-6.138.364-2.442 2.557-5.333 4.684-8.8 7.661v-5.061c-1.206.509-2.195.727-2.93 1.282zm-458.325-36.05c1.477-1.186 2.776-2.862 4.461-3.471 6.627-2.397 7.684-4.265 5.408-10.961-.511-1.503-1.25-2.929-1.765-4.432-1.372-4.004-2.59-8.063-4.047-12.035-.821-2.239-1.993-4.348-3.007-6.516l-1.973.618c.551 3.584.701 7.295 1.775 10.715.921 2.931 2.869 5.547 4.422 8.269 1.624 2.846 1.634 6.039-1.179 7.428-2.741 1.354-5.256-.787-6.898-3.366-.774-1.216-1.667-2.356-2.03-2.864-.389 3.942-.888 8.066-1.139 12.204-.062 1.02.379 2.48 1.118 3.052 1.395 1.078 3.176 1.658 4.796 2.445l.058-1.086zm143.343-17.988c.082-.359.169-.718.282-1.068 1.962-6.053 3.772-12.161 5.936-18.141 2.299-6.352-.101-13.826-4.557-15.166.172 2.773 1.21 6.028.391 8.718-3.079 10.112-6.764 20.04-10.378 30.489 7.113.473 7.112.473 8.326-4.832zm-110.692 30.756c1.409-3.767 2.881-7.511 4.197-11.31.552-1.595 1.468-3.52 1.03-4.923-2.082-6.668-1.24-13.012 1.069-19.399 1.268-3.505.266-6.426-3.236-8.696-6.895 14.457-3.132 29.549-4.751 44.155l1.691.173zm111.49-58.973c-1.094-2.337-1.792-5.062-3.499-6.795-.583-.592-3.923.974-5.617 2.123-11.433 7.759-18.614 18.924-24.358 31.152-.589 1.253-.481 2.834-.696 4.263l1.191.587c1.15-1.106 2.567-2.049 3.374-3.365.788-1.285.691-3.099 1.433-4.429 5.422-9.721 11.901-18.558 21.332-24.862 2.69-1.799 4.812-2.028 5.796 2.037l1.044-.711zm-173.646 10.427c-1.339-4.184-3.202-7.798-7.779-9.489-1.57-.58-2.814-2.276-3.986-3.651-2.129-2.496-4.484-4.118-7.97-3.273-.798.193-1.785.266-2.517-.027-6.914-2.769-11.368 2.476-16.252 4.976.146 1.703-.014 3.066-.707 4.057-2.249 3.215-4.693 6.293-7.061 9.424l.958 1.225c1.114-.332 2.622-.319 3.27-1.059 2.006-2.29 4.089-4.67 5.407-7.373 2.621-5.375 8.433-8.185 14.459-7.751 5.929.427 10.835 2.033 14.889 6.516 2.158 2.387 4.899 4.247 7.377 6.345l-.088.08zm224.07 66.084c-3.526 3.018-3.902 7.216-.868 10.83.623.743 1.98 1.746 2.489 1.514.884-.404 1.745-1.602 1.947-2.603.477-2.363 1.491-3.352 4.029-3.066 1.162.131 2.556-.475 3.63-1.11 4.74-2.803 5.407-7.697 6.205-12.515-1.238 1.353-2.001 3.191-3.373 4.207-1.632 1.209-3.792 2.28-5.712 2.263-.87-.008-1.715-2.785-2.592-4.343-1.642 1.373-3.716 3.077-5.755 4.823zm-249.905-69.018c-7.166 3.466-14.332 6.932-21.498 10.399 1.514 4.748 6.191 6.546 9.804 3.63 3.989-3.219 7.847-6.613 11.604-10.101.722-.67.711-2.129 1.038-3.224l-.948-.704zm579.907 5.585c1.243-1.327 2.013-3.36 2.331-5.187.179-1.027-.761-2.602-1.675-3.317-.455-.356-2.087.516-3.01 1.106-1.118.715-2.022 1.756-3.068 2.596-4.47 3.591-5.383 11.635-1.607 15.924.664.754 2.162.775 4.045 1.383-1.964-5.568-.171-9.137 2.984-12.505zm-444.487-.337c.437-7.474 3.348-15.069-4.762-20.278 4.759 9.579-4.038 15.928-4.958 24.573 3.119-2.114 6.071-10.769 9.72-4.295zm-109.499-2.392c.668 1.387.982 3.349 2.086 4.031 1.948 1.202 5.378 2.95 6.438 2.15 5.399-4.071 11.34-4.428 17.548-3.92.791-3.401-1.02-5.418-4.118-4.756-.935.2-2.026.979-2.736.701-3.218-1.257-5.534.362-8.214 1.739-3.514 1.807-7.364 3.77-11.09.134l.086-.079zm306.086-3.447c6.065-1.403 12.284-2.213 18.09 1.405.474.295 1.486-.272 2.248-.438-.185-.741-.175-1.636-.606-2.184-.496-.631-1.325-1.159-2.108-1.381-5.057-1.436-9.926-4.529-15.507-1.715-.746.376-1.909-.158-2.869-.101-1.387.082-2.765.319-4.554.539 1.169 3.234 2.094 4.617 5.306 3.875zm135.238 33.005l8.34 3.19c.377-5.609 5.15-11.372-1.12-15.351-2.498 4.206-4.871 8.203-7.22 12.161zm-257.905 7.296c-4.62 2.819-4.866 2.754-6.915-1.924-3.151 4.134-7.298 6.299-12.423 6.912-1.182.141-2.221 1.469-3.326 2.251 1.237.46 2.491 1.354 3.709 1.308 6.423-.239 11.888-3.269 17.243-6.447.724-.43 1.096-1.454 1.63-2.202l.082.102zm57.11 7.094c2.212-3.044 4.276-5.854 6.294-8.697.261-.368.546-1.066.378-1.338-2.376-3.845-4.245-8.143-9.081-10.295 7.102 6.092 2.022 13.313 2.409 20.33zm-250.251-41.265l-3.155 5.856-5.256-.617-.385 1.554 7.345 3.998 3.26-9.943-1.809-.848zm489.479 52.797c3.872 6.073 4.595 6.284 10.385 3.107l-3.907-4.757-6.575 1.744.097-.094zm-446.022-9.499c-2.608 2.625-2.689 5.37-.99 8.795l5.806-14.232-2.902-.331c-.745 2.409-.784 4.631-1.914 5.768zm299.889-41.328l1.016-1.015-4.407-9.322-3.417 7.2 6.808 3.137zm221.381 13.217c-2.179 5.169-.654 8.224 5.268 9.073l-3.966-9.585-1.302.512zm-14.181 48.441l5.403-6.519-7.056-1.071.558 7.278 1.095.312zm-13.049-23.281c.566.499 2.442.325 3.063-.253.818-.762.984-2.223 1.43-3.384l-3.066-.266-4.367-.369c1.049 1.609 1.748 3.22 2.94 4.272zm9.526-18.201l-.278 1.229c1.409.311 3.486 1.356 4.102.796 1.789-1.628 3.251-3.851 1.259-7.149l-3.034 5.446-2.049-.322zm-553.669-26.574l.583 7.177 1.105.033 2.424-3.097-3.119-4.603-.993.49zm186.369 38.858c-3.399-.182-6.696-.02-9.055 3.338 3.088-.718 6.177-1.436 9.265-2.153l-.21-1.185zm-170.607-43.957c1.107 1.976 2.129 4.009 3.385 5.885.289.432 1.382.326 2.104.468-.052-.646.137-1.482-.198-1.905-1.394-1.763-2.944-3.403-4.437-5.087l-.854.639zm546.217 24.862c1.672.834 3.309 1.772 5.06 2.378.233.081 1.047-1.519 1.885-2.78l-6.436-.705-.509 1.107zm-154.698 35.833c1.938-3.244-2.42-4.67-3.344-7.101l1.635 7.36 1.709-.259zm162.393-26.075c1.548 1.578 3.041 3.217 4.691 4.679.312.277 1.25-.153 1.899-.256-.17-.616-.141-1.52-.543-1.797-1.742-1.199-3.61-2.215-5.432-3.298l-.615.672zm6.251 10.671c3.633-3.536 4.947-6.446 3.809-8.174l-4.798 7.679.989.495zm-105.798-1.658l5.042 6.181 1.22-1.076-5.413-5.879-.849.774zm-323.32 48.465c-.203.45-.171 1.34.131 1.63 1.862 1.786 1.594 3.561.529 5.67-.388.768-.222 2.321.33 2.976 3.945 4.675 8.055 9.21 12.112 13.79l.911-.834c-1.475-1.59-2.957-3.173-4.422-4.773-3.127-3.413-4.233-7.446-3.307-11.931.215-1.045 1.09-2.462 1.957-2.723.885-.266 2.272.492 3.181 1.155.733.535 1.122 1.573 1.592 2.428 3.106 5.648 8.17 7.656 13.957 4.696 4.204-2.151 8.129-5.019 11.768-8.06 4.562-3.813 4.961-3.623 8.719.979 6.831 8.366 11.495 12.413 22.525 4.152 4.602-3.447 6.135-3.59 10.083.4 2.867 2.898 6.167 4.261 9.973 3.375 4.368-1.016 8.852-2.146 12.81-4.161 5.867-2.988 6.542-3.186 11.501 1.45.7.655 2.437 1.225 2.992.836 2.589-1.818 4.931-3.987 6.724-5.495-3.258-.616-6.958-.466-9.62-2.055-2.734-1.632-4.455-4.963-6.821-7.791-.437.354-1.766 1.224-2.842 2.338-5.313 5.499-11.901 7.98-19.397 8.281-1.16.047-2.782-.014-3.434-.722-2.682-2.913-5.072-6.095-7.98-9.684-2.307 2.055-5.052 4.267-7.526 6.751-6.023 6.047-12.339 5.58-15.156-1.445-4.233.644-4.779-1.976-4.632-5.385.138-3.219.03-6.449.03-10.807-2.411 2.672-4.07 4.427-5.635 6.262-5.056 5.926-10.551 11.301-17.816 14.511-4.991 2.205-9.41-.28-10.282-5.539-.215-1.294-1.201-3.091-2.268-3.487-2.644-.983-3.601-2.749-3.802-5.269-.134-1.684-.245-3.37-.402-5.547-2.326 5.002-4.442 9.499-6.483 14.028zm8.178-19.05l4.024-22.328-1.283-.792c-1.22 1.338-3.409 2.617-3.494 4.023-.382 6.319-.167 12.675-.167 19.017l.92.08zm-26.039-9.287c1.803-.236 3.609-.447 5.413-.667-.135 1.912.324 4.16-.528 5.667-1.792 3.171-4.151 6.055-6.512 8.86-1.437 1.707-1.324 2.939.18 4.385 2.024 1.948 4.866 1.4 7.294-1.288 6.509-7.208 4.645-16.258 6.131-24.706-10.716.045-11.499.547-12.967 8.049.366-.114.671-.258.989-.3zm109.304-1.371c4.209-3.832 6.168-8.696 6.528-14.292l-1.031-.493-6.822 14.085 1.325.7zm-106.406-25.331c-.964-.722-2.75-.345-4.164-.466.092 1.419-.312 3.164.367 4.196 2.078 3.157 5.378 2.832 9.508 2.139-2.18-2.311-3.726-4.384-5.711-5.869zm332.645 32.573c.141-1.964.825-4.441-2.273-4.876-2.873-.404-6.52-2.61-7.732 2.221-1.715 6.835-3.461 13.692-4.563 20.64-.752 4.743.899 5.951 5.888 5.669-1.868-6.021.206-11.566 2.271-17.019 1.213-3.202 2.968-3.355 5.402-.853.394-2.17.876-3.964 1.007-5.782zm-38.048-3.323c-3.058-.508-5.657-.984-8.273-1.334-.5-.067-1.354.215-1.56.597-1.922 3.563-3.739 7.183-5.586 10.786l.921 1.308c2.452-.36 5.942.14 7.117-1.278 1.858-2.242 3.128-2.601 5.746-.856l1.635-9.223zm18.957-3.485c.468-1.204.377-2.625.542-3.947-1.552.465-3.186.765-4.614 1.479-.546.273-.848 1.486-.867 2.28-.089 3.65-.039 7.303-.039 11.88 1.934-4.494 3.564-8.051 4.978-11.692zm-30.735-16.114c.879 4.626 4.122 5.477 7.415 6.227-1.8-2.604-3.019-5.935-7.415-6.227zm45.919 4.682c-2.936-4.383-4.599-5.185-8.569-3.027l8.145 4 .424-.973zm-339.206-37.634c-.156-.756.018-1.614.265-2.373.248-.762.996-1.017 1.807-.686.373.152.691.537.883.882.214.384.257.844.374 1.271-.058.745-.277 1.37-1.12 1.658-.631.216-2.087-.156-2.209-.752zm.164 4.487c.252-.408.495-.824.787-1.209.574-.756.532-1.08-.287-1.631-.233-.157-.465-.323-.722-.441-.696-.322-1.239-.699-.757-1.626-.29.081-.408.082-.441.129-.261.372-.487.764-.759 1.13-1.017 1.369-1.002 2.511.068 3.797.627.754 1.597.683 2.111-.149zm1.56-9.163l-1.026 1.159c1.02.117 1.244-.258 1.026-1.159zm4.078 5.882c.898.24 1.896-.571 2.229-1.813.333-1.242-.125-2.444-1.022-2.685-.898-.24-1.896.571-2.228 1.814-.333 1.242.124 2.444 1.021 2.684zm-1.798 1.312c-1.342-.073-2.042.379-2.151 1.542-.075.801-.54 1.5-1.478 1.88-.368.149-1.016.496-1.041.782-.084.963.165 1.922 1.041 2.65.795.661 1.856.424 2.763.225.286-.063.582-.268.88-.31 2.65.007 4.794 1.966 4.794-1.129-.001-3.099-3.084-5.638-4.808-5.64zm6.668-1.939c-.711-.412-1.751.055-2.321 1.041-.569.987-.455 2.12.259 2.531.711.412 1.751-.055 2.321-1.041.569-.985.454-2.119-.259-2.531zm9.304-.579c-.156-.756.018-1.614.265-2.373.248-.762.996-1.017 1.807-.686.373.152.691.537.883.882.214.384.257.844.374 1.271-.058.745-.277 1.37-1.12 1.658-.63.216-2.086-.156-2.209-.752zm.164 4.487c.252-.408.495-.824.787-1.209.574-.756.532-1.08-.287-1.631-.233-.157-.465-.323-.722-.441-.696-.322-1.239-.699-.757-1.626-.29.081-.408.082-.441.129-.261.372-.487.764-.759 1.13-1.017 1.369-1.002 2.511.068 3.797.628.754 1.597.683 2.111-.149zm1.561-9.163l-1.026 1.159c1.019.117 1.243-.258 1.026-1.159zm4.077 5.882c.898.24 1.896-.571 2.229-1.813s-.125-2.444-1.022-2.685c-.898-.24-1.896.571-2.228 1.814-.333 1.242.124 2.444 1.021 2.684zm-1.798 1.312c-1.342-.073-2.042.379-2.151 1.542-.075.801-.54 1.5-1.478 1.88-.368.149-1.016.496-1.041.782-.084.963.165 1.922 1.041 2.65.795.661 1.856.424 2.763.225.286-.063.582-.268.88-.31 2.65.007 4.794 1.966 4.794-1.129-.001-3.099-3.084-5.638-4.808-5.64zm6.669-1.939c-.711-.412-1.751.055-2.321 1.041-.569.987-.455 2.12.259 2.531.711.412 1.751-.055 2.321-1.041.569-.985.453-2.119-.259-2.531zm276.393 9.779c-.156-.756.018-1.614.265-2.373.248-.762.996-1.017 1.807-.686.373.152.691.537.883.882.214.384.257.844.374 1.271-.058.745-.277 1.37-1.12 1.658-.63.216-2.086-.156-2.209-.752zm.165 4.487c.252-.408.495-.824.787-1.209.574-.756.532-1.08-.287-1.631-.233-.157-.465-.323-.722-.441-.696-.322-1.239-.699-.757-1.626-.29.081-.408.082-.441.129-.261.372-.487.764-.759 1.13-1.017 1.369-1.003 2.511.068 3.797.627.754 1.597.683 2.111-.149zm1.56-9.163l-1.026 1.159c1.02.117 1.244-.258 1.026-1.159zm4.078 5.882c.898.24 1.896-.571 2.229-1.813s-.125-2.444-1.022-2.685c-.898-.24-1.896.571-2.228 1.814-.334 1.242.124 2.444 1.021 2.684zm-1.798 1.313c-1.342-.073-2.042.379-2.151 1.542-.075.801-.54 1.5-1.478 1.88-.368.149-1.016.496-1.041.782-.084.963.165 1.922 1.041 2.65.795.661 1.856.424 2.763.225.286-.063.582-.268.88-.31 2.65.007 4.794 1.966 4.794-1.129-.001-3.1-3.085-5.639-4.808-5.64zm6.668-1.94c-.711-.412-1.751.055-2.321 1.041-.569.987-.455 2.12.26 2.531.711.412 1.751-.055 2.321-1.041.568-.985.453-2.119-.26-2.531zm9.304-.795c-.156-.756.018-1.614.266-2.373.248-.762.996-1.017 1.807-.686.373.152.691.537.883.882.214.384.257.844.374 1.271-.058.745-.277 1.37-1.12 1.658-.632.216-2.087-.156-2.21-.752zm.164 4.487c.252-.408.495-.824.787-1.209.574-.756.532-1.08-.287-1.631-.233-.157-.465-.323-.722-.441-.696-.322-1.239-.699-.757-1.626-.29.081-.408.082-.441.129-.261.372-.487.764-.759 1.13-1.017 1.369-1.002 2.511.068 3.797.628.754 1.597.683 2.111-.149zm1.56-9.163l-1.026 1.159c1.02.117 1.244-.258 1.026-1.159zm4.078 5.882c.898.24 1.896-.571 2.229-1.813s-.125-2.444-1.022-2.685c-.898-.24-1.896.571-2.228 1.814-.333 1.242.124 2.444 1.021 2.684zm-1.798 1.312c-1.342-.073-2.042.379-2.151 1.542-.075.801-.54 1.5-1.478 1.88-.368.149-1.016.496-1.041.782-.084.963.165 1.922 1.041 2.65.795.661 1.856.424 2.763.225.286-.063.582-.268.88-.31 2.65.007 4.794 1.966 4.794-1.129-.001-3.099-3.084-5.638-4.808-5.64zm6.669-1.939c-.711-.412-1.751.055-2.321 1.041-.569.987-.455 2.12.259 2.531.711.412 1.751-.055 2.321-1.041.569-.986.453-2.119-.259-2.531z"/></svg>